<svg width="160" height="54" viewBox="0 0 160 54" fill="none" xmlns="http://www.w3.org/2000/svg">
<mask id="mask0_1560_9468" style="mask-type:luminance" maskUnits="userSpaceOnUse" x="0" y="4" width="31" height="38">
<path d="M30.2883 40.5091C30.4582 40.4151 30.6232 40.3181 30.7832 40.218L30.3398 30.118C28.123 31.8227 24.498 33.0222 19.921 33.0222C13.5706 33.0222 9.50204 29.0441 9.50204 23.3626C9.50204 17.0502 13.6357 13.7042 19.2168 13.7042C22.7245 13.7042 25.4499 14.8402 27.6798 16.734L30.5668 8.76271L30.4973 8.6872L30.0878 8.93608L29.9073 8.98654L30.0058 9.18054L29.5414 9.16759L29.9371 9.4308L29.3667 9.84914L28.7637 9.93472L28.5145 9.26169L28.0179 9.79084L27.7131 9.69571L27.7392 9.59274L27.7636 9.39261L27.4396 9.0844L26.8012 8.59616L26.5609 8.61389L26.388 8.32238L26.0633 8.7905L25.8522 8.77448L25.763 8.98961L25.3899 9.28897L25.2145 9.25521L25.0652 8.85869L24.6647 8.68447L24.5494 7.98485L24.4821 7.9095L24.2597 7.97019L24.2721 7.86176L24.0672 7.96132L24.0016 8.61764L23.041 8.39023L23.2984 8.05542L23.2582 7.85495L22.7393 7.66299L22.753 7.55867L22.3727 7.37251L22.3672 7.26818L22.2581 7.25454L21.7677 7.46183L21.8497 7.20783L21.896 7.06293L21.1839 6.85154L20.8176 6.92894L20.3145 6.60777L19.9905 7.01111L19.1146 5.7629L18.8534 5.7479L18.6341 5.78132L18.5947 6.00804L18.3434 6.25864L18.2889 6.58799L17.8248 6.70528L17.7239 6.64254L17.565 6.79835L17.2421 6.86893L16.6534 6.77449L17.0516 6.38513L16.7444 5.93917L16.4389 6.08544L15.9763 6.13999L15.7247 6.0285L15.7889 6.22557L15.5304 6.42536L15.4289 6.38002L15.2844 6.16419L15.4165 5.99202L15.1745 5.77995L14.9463 5.72574L14.8646 5.80689L14.6432 5.55049L14.3079 5.64323L13.8398 5.57368L13.7087 5.05578L13.4873 4.9968L13.49 4.8877L13.233 5.12669L12.7799 5.28046L12.4971 5.49458L12.4941 5.50378L12.1097 5.62005L11.5883 6.06123L10.9963 5.80075L10.7303 6.09362L10.3878 6.21977L10.1403 6.22318L10.0586 6.13624L8.85944 6.50105L8.77907 6.24559C5.22525 8.08834 2.40332 10.9682 0.658203 14.556L0.819679 14.6047L0.872531 14.7124L0.899303 14.8041L0.96177 14.9712L0.825859 15.1096L1.41481 15.6497L1.00604 16.262L1.30017 16.5371L1.317 16.4362L1.60941 16.5484L1.86373 16.7645L1.73056 17.2067L1.9492 17.2456L2.14208 17.3823L2.13282 17.4983L1.83628 17.6957L2.03946 18.116L2.03328 18.2166L1.78136 18.3997L1.72507 19.1958L1.97151 19.5872L1.8627 19.7911L1.90904 19.9343L2.38335 20.0257L2.84429 20.4147L2.79143 20.7134L2.73446 20.8528L2.61227 20.8767L2.02813 21.6312L1.97974 21.7035L2.14173 21.7509L1.85275 21.9196L1.84555 22.1972L2.52545 22.4529L2.40636 22.7669L2.32467 23.3063L2.43827 23.4236L2.7928 23.7362L3.26988 23.7035L3.21496 23.919L3.46584 24.1464L3.41883 24.3434L3.59009 24.4842L3.60245 24.7042L3.81077 24.9684L4.17904 24.7948L4.38188 24.8494L4.20513 24.921L4.34207 25.041L4.39733 24.9449L4.9499 24.9871L5.01957 25.1883L4.64272 25.9346L4.8363 26.0598L4.81261 26.1689L5.50178 26.338L5.7211 26.2476L6.03101 26.3823L6.11235 26.7004L6.42193 27.0236L6.63335 26.9861L6.37801 27.8923L6.39037 28.3615L6.6869 28.8637L6.61929 29.0816L6.84581 29.3264L6.78506 29.5091L6.9467 29.6601L6.98103 29.8685L7.17666 29.9343L7.7385 29.8971L7.84524 30.2067L8.03367 30.5889L8.35799 30.6635L8.54986 30.7969L8.78633 30.7914L8.89547 30.8136L9.3715 30.8047L9.50433 30.6155L9.73084 30.5463L9.78336 30.2213L9.98139 30.3519L10.0634 30.7236L10.268 30.7802L10.1372 30.9673L10.177 31.414L9.87088 31.731L9.96114 31.7686L9.97658 32.0266L10.4011 31.9469L10.7193 32.014L11.0701 32.1879L10.824 32.8183L11.0646 32.8599L11.3062 33.3775L11.0323 33.611L10.9153 34.179L11.1892 34.5718L11.0316 34.7358L11.0536 35.044L10.6489 35.2326L10.7117 35.429L11.1143 35.9209L11.4634 35.9762L11.8179 36.0188L12.2785 35.9073L12.6107 35.9901L12.8029 35.8544L12.8321 35.6772L13.6455 35.7099L14.0244 35.295L14.2564 35.281L14.1837 35.6274L15.3743 35.5773L15.3818 35.4365L15.1944 35.2418L15.214 35.0358L15.548 35.0975L15.5902 35.0188L15.839 35.0607L15.8695 34.7211L16.4369 34.0123L16.614 34.2909L17.0142 34.5231L17.3526 34.5166L17.1593 34.9741L17.3972 35.0058L17.3258 35.5786L17.552 35.477L17.8849 35.0188L18.4128 35.2159L18.6111 35.1466L18.8963 34.5111L19.0072 34.4627L19.2903 34.4201L19.3377 34.6359L19.9092 35.1739L19.9977 35.2285L20.1872 35.1456L20.2393 35.2329L20.9165 35.0113L21.0033 34.8275L21.4258 35.55L21.4107 36.6454L21.4481 36.7402L21.6582 37.0137L21.8785 37.0996L21.9804 37.0563L22.1507 37.193L22.5543 37.0297L22.7338 37.1794L22.7533 37.4047L22.9064 37.5783L23.4206 37.5929L23.4477 37.9148L23.6344 37.984L23.6056 38.4061H23.6824L23.8135 38.9315L23.7497 39.0948L23.6358 39.1251L23.4827 39.5319L23.6241 40.073L23.4236 40.356L22.8848 40.0839L22.6185 40.4177L22.6246 40.6209L22.3676 40.9693L21.9746 41.196L21.9379 41.3975L22.2454 41.4681L22.3178 41.3935L22.752 41.2755L23.7947 41.4068L23.7833 41.2987L24.1516 40.8912L24.9235 40.8814L25.0941 41.1855L25.7115 41.1845L26.5369 40.9441L27.1228 41.5639L27.1887 41.5595L27.3737 41.4081L28.0989 41.4197L28.4703 40.9959L29.2349 40.7187L29.2126 40.5084L28.796 40.0235L29.2229 40.1892L29.4278 40.0965L29.6564 40.1228L29.8369 39.9884L30.0531 40.0576L30.2567 39.9656L30.536 40.0989L30.5244 40.208L30.2906 40.4511L30.2883 40.5091Z" fill="white"/>
</mask>
<g mask="url(#mask0_1560_9468)">
<path d="M46.8247 25.2442L47.926 24.8589L47.9243 24.7471L47.5869 24.4157L47.1222 24.2971L47.0639 24.1948L47.4016 23.8647L47.0436 23.9544L46.4423 23.8494L46.083 24.1668L45.4841 24.2636L45.6639 23.7041L45.2847 23.264L45.3695 23.1784L45.2878 22.9899L45.6124 22.6418L45.9454 22.4931L45.9852 22.1511L46.107 22.1344L45.8558 21.8801L45.8589 21.2957L45.8493 21.0963L45.8647 20.7645L45.2888 20.7921L45.1505 20.6107L45.1453 20.2749L44.9511 20.1409L44.5004 20.2851L44.2698 20.2135L44.2238 19.9984L44.5241 19.2473L44.7554 19.2347L44.9569 19.3417L45.2751 19.2091L45.2854 19.0986L45.2442 18.6496L44.7839 18.6183L44.4668 18.4658L44.4345 18.355L44.6789 18.0997L44.9878 18.2616L45.3293 18.3022L45.9302 18.0022L46.0387 18.0475L46.1805 18.2892L46.327 18.1883L46.2814 17.8412L46.4224 17.517L46.28 16.9527L45.9299 16.9984L45.7374 17.4048L45.3499 17.2446L45.5105 16.8048L44.9566 16.6241L44.8292 16.4256L44.4898 16.5559L44.2653 16.4645L44.4273 16.1461L43.9832 16.2852L43.8785 16.2217L43.8459 15.7536L43.5974 15.4928L43.7111 15.039L43.5302 14.365L43.3967 14.6762L42.6612 15.0666L42.2613 14.6203L42.2411 14.1427L42.0671 13.6933L41.577 13.9828L41.2434 14.0741L41.1425 14.0199L41.0261 13.8269L41.0899 13.6878L40.9101 13.2463L40.7773 12.8365L40.35 12.7516L40.3023 12.3592L40.201 12.3956L40.165 12.2906L39.8382 12.1785L39.7991 11.9869L39.5973 11.7744L38.9572 11.5487L38.7571 11.2981L38.7688 11.0864L39.0773 10.9146L39.1789 10.4778L39.4017 10.3974L39.4031 10.2876L39.1741 10.0799L39.1937 9.87742L38.8711 9.38169L38.6562 9.26338L38.5893 9.09223L38.8089 8.61592L38.4602 8.58899L38.1877 8.38681L37.8394 8.3701L37.7838 8.30498L37.6249 8.36328L36.8032 8.17576L36.6295 8.01347L36.2661 8.53955L36.2757 8.7465L36.4936 9.10177L35.7547 8.98755L35.6644 9.0479L35.2505 8.91391L35.0436 8.98312L34.7704 9.13553L34.6739 9.53375L34.3585 9.4509L34.284 8.97528L34.1883 8.91868L33.8969 9.07688L33.6862 9.00528L33.61 9.31623L33.5008 9.34452L33.4068 9.27736L33.1803 9.33429L32.6514 9.09631L32.4983 9.37589L32.3851 9.32645L31.9608 9.56955L31.5908 9.61251L31.3304 9.11302L31.1035 9.17644L30.8807 9.10382L30.4974 8.68718L30.0879 8.93607L29.9074 8.98653L30.0059 9.18053L29.5415 9.16757L29.9373 9.43078L29.3668 9.84913L28.7638 9.9347L28.5146 9.26167L28.018 9.79082L27.7132 9.6957L27.7393 9.59273L27.7637 9.3926L27.4397 9.08438L26.8013 8.59615L26.5611 8.61388L26.3881 8.32237L26.0634 8.79049L25.8523 8.77446L25.7631 8.9896L25.39 9.28895L25.2146 9.2552L25.0654 8.85867L24.6648 8.68445L24.5495 7.98483L24.4822 7.90948L24.2598 7.97017L24.2722 7.86175L24.0673 7.96131L24.0017 8.61763L23.0411 8.39022L23.2985 8.05541L23.2583 7.85493L22.7394 7.66298L22.7531 7.55865L22.3728 7.37249L22.3674 7.26816L22.2582 7.25453L21.7678 7.46182L21.8498 7.20782L21.8961 7.06291L21.184 6.85153L20.8178 6.92892L20.3146 6.60775L19.9906 7.01109L19.1147 5.76289L18.8536 5.74789L18.6342 5.7813L18.5948 6.00803L18.3435 6.25862L18.289 6.58798L17.8249 6.70526L17.724 6.64253L17.5651 6.79834L17.2422 6.86891L16.6536 6.77447L17.0517 6.38511L16.7445 5.93916L16.4391 6.08542L15.9764 6.13997L15.7248 6.02848L15.789 6.22555L15.5306 6.42535L15.429 6.38L15.2845 6.16418L15.4166 5.992L15.1747 5.77993L14.9464 5.72572L14.8647 5.80687L14.6434 5.55048L14.3081 5.64321L13.8399 5.57366L13.7088 5.05577L13.4874 4.99678L13.4902 4.88768L13.2331 5.12668L12.7801 5.28045L12.4973 5.49456L12.4942 5.50377L12.1098 5.62003L11.5884 6.06122L10.9964 5.80073L10.7304 6.09361L10.3879 6.21976L10.1404 6.22316L10.0587 6.13623L8.85955 6.50104L8.72398 6.07008L8.67113 6.10417L8.07703 6.23203L7.72695 6.41307L7.78702 6.19657L7.66105 6.01382L7.32847 6.05133L6.87956 5.73902L6.78174 5.90302L6.39254 5.73629L6.37984 5.74073L5.90723 6.0844L5.59354 5.9187L5.50602 5.50207L5.20124 5.44069L5.17723 5.22215L4.96031 5.14339L4.961 5.02917L5.38967 4.83585L5.43223 4.5007L5.54103 4.45025L4.84877 3.98145L4.69844 4.15567L4.58621 4.36024L4.0429 4.82904L3.97083 5.04997L4.03467 5.25692L3.90871 5.57878L3.93857 5.88222L3.81055 6.0561L3.88022 6.27431L3.69626 6.69265L3.76285 6.78879L3.72543 6.83755L3.50578 7.19214L3.56893 7.58149L3.38497 7.76185L2.8928 8.43181L2.73184 8.70593L2.71536 9.00937L2.80597 9.07245L2.46722 9.34827L2.35739 9.15019L2.12985 9.18462L1.61365 9.38441L1.34491 9.60159L1.01269 9.53375L0.42476 9.66911L0.313222 9.27906L0.166324 9.13314L0.225702 9.34964L0.00364206 9.98073L-0.38796 10.2283L-0.62307 10.1621L-0.973489 9.83855L-1.30469 10.1686L-1.21133 10.2409L-1.2841 10.4577L-1.09567 10.7482L-1.05963 11.0844L-0.731173 11.3425L-0.608312 11.4713L-0.679347 11.6432L-0.531088 11.7823L-0.750738 12.2681L-0.967655 12.3442L-0.753147 12.8167L-0.58085 12.6677L-0.2167 12.664L0.111064 12.5153L0.241486 12.693L0.355778 12.6974L-0.184785 13.1219L-0.0478377 13.5532L0.183146 13.5317L-0.0378874 13.9527H-0.0317077L0.195495 14.2085L0.115871 14.4175L0.251782 14.6005L0.462519 14.4969L0.819798 14.6046L0.87265 14.7124L0.899421 14.8041L0.961888 14.9711L0.825978 15.1096L1.41493 15.6496L1.00616 16.262L1.30029 16.5371L1.31711 16.4362L1.60953 16.5484L1.86385 16.7645L1.73068 17.2067L1.94932 17.2456L2.14219 17.3823L2.13294 17.4982L1.83639 17.6957L2.03958 18.116L2.0334 18.2166L1.78148 18.3997L1.72519 19.1958L1.97162 19.5872L1.86282 19.7911L1.90916 19.9343L2.38347 20.0257L2.84441 20.4147L2.79155 20.7134L2.73458 20.8528L2.61239 20.8767L2.02825 21.6312L1.97986 21.7035L2.14185 21.7509L1.85287 21.9196L1.84566 22.1972L2.52556 22.4529L2.40647 22.7669L2.32479 23.3063L2.43839 23.4235L2.79292 23.7362L3.26999 23.7035L3.21508 23.9189L3.46596 24.1463L3.41894 24.3434L3.59021 24.4842L3.60256 24.7041L3.81089 24.9684L4.17916 24.7948L4.382 24.8494L4.20525 24.921L4.34219 25.041L4.39745 24.9448L4.95001 24.9871L5.01969 25.1883L4.64284 25.9346L4.83641 26.0597L4.81273 26.1688L5.5019 26.338L5.72122 26.2476L6.03113 26.3823L6.11247 26.7004L6.42205 27.0236L6.63347 26.9861L6.37812 27.8923L6.39048 28.3615L6.68701 28.8637L6.6194 29.0815L6.84593 29.3263L6.78518 29.5091L6.94682 29.6601L6.98114 29.8684L7.17678 29.9342L7.73861 29.8971L7.84536 30.2067L8.03378 30.5889L8.35811 30.6635L8.54997 30.7968L8.78645 30.7914L8.89558 30.8135L9.37162 30.8047L9.50445 30.6155L9.73096 30.5462L9.78348 30.2213L9.98151 30.3519L10.0635 30.7235L10.2681 30.7801L10.1373 30.9673L10.1771 31.414L9.871 31.731L9.96126 31.7685L9.9767 32.0266L10.4013 31.9468L10.7194 32.014L11.0702 32.1879L10.8241 32.8183L11.0647 32.8599L11.3063 33.3775L11.0324 33.611L10.9154 34.179L11.1893 34.5718L11.0317 34.7358L11.0537 35.044L10.6491 35.2325L10.7119 35.4289L11.1145 35.9209L11.4635 35.9761L11.818 36.0188L12.2786 35.9073L12.6109 35.9901L12.8031 35.8544L12.8322 35.6771L13.6456 35.7099L14.0246 35.2949L14.2566 35.281L14.1838 35.6274L15.3744 35.5772L15.382 35.4364L15.1946 35.2417L15.2141 35.0358L15.5481 35.0975L15.5903 35.0188L15.8391 35.0607L15.8697 34.7211L16.437 34.0123L16.6141 34.2908L17.0143 34.523L17.3527 34.5166L17.1595 34.9741L17.3973 35.0058L17.3259 35.5786L17.5521 35.477L17.885 35.0188L18.4129 35.2158L18.6112 35.1466L18.8965 34.5111L19.0073 34.4627L19.2905 34.4201L19.3378 34.6359L19.9093 35.1739L19.9978 35.2285L20.1873 35.1456L20.2394 35.2329L20.9166 35.0113L21.0034 34.8275L21.4259 35.55L21.4108 36.6454L21.4482 36.7402L21.6583 37.0136L21.8786 37.0996L21.9806 37.0563L22.1508 37.193L22.5544 37.0297L22.7339 37.1793L22.7535 37.4047L22.9066 37.5782L23.4207 37.5929L23.4478 37.9148L23.6345 37.984L23.6057 38.4061H23.6826L23.8137 38.9315L23.7498 39.0948L23.6359 39.1251L23.4828 39.5319L23.6242 40.073L23.4238 40.3559L22.8849 40.0839L22.6186 40.4176L22.6248 40.6209L22.3677 40.9693L21.9747 41.196L21.938 41.3975L22.2455 41.4681L22.3179 41.3934L22.7521 41.2755L23.7948 41.4067L23.7835 41.2987L24.1517 40.8912L24.9236 40.8813L25.0942 41.1855L25.7116 41.1844L26.5371 40.9441L27.1229 41.5639L27.1888 41.5595L27.3738 41.4081L28.099 41.4197L28.4704 40.9959L29.235 40.7187L29.2127 40.5083L28.7961 40.0235L29.223 40.1892L29.4279 40.0965L29.6565 40.1227L29.837 39.9884L30.0533 40.0576L30.2568 39.9656L30.5362 40.0989L30.5245 40.208L30.2908 40.4511L30.2688 40.9966L30.3371 41.1964L30.7688 41.2567L31.4618 40.8247L31.8414 40.3692L31.9389 40.3546L32.617 40.2547L33.4641 40.1217L33.4274 39.6028L33.9099 39.1415L34.2731 39.0852L34.2892 38.775L34.6931 38.5864L34.884 38.6764L35.0909 38.5725L35.2502 38.1459L35.7145 37.2496L36.0615 37.2175L35.9716 36.4722L35.5292 36.3444L35.6456 36.0154L35.419 35.6465L35.5924 35.5033L35.3171 35.2786L35.8985 34.551L35.8268 34.1384L36.1055 33.5046L36.5084 33.5824L36.8331 33.4777L37.0256 33.5926L37.2576 33.5817L37.2765 33.788L37.3657 33.8585L37.629 33.3573L37.8105 33.2152L38.2169 33.0815L38.3333 33.2598L38.8597 33.1016L38.9627 32.911L39.1769 33.0161L39.2692 33.2319L39.4755 33.1896L39.7246 33.3645L39.9594 33.2503L40.2391 33.161L40.8123 33.3338L41.3065 32.8889L41.5265 32.8947L41.5632 32.7863L42.2054 33.0713L42.2328 32.9666L42.3457 32.9714L42.6591 33.0979L42.8091 33.0621L43.0373 33.06L43.1626 32.879L43.2765 32.8851L43.2717 33.1067L43.4488 32.9901L43.5044 32.4463L43.7165 32.2039L43.9448 32.1978L44.2962 32.4583L44.6364 32.4869L44.7781 31.8562L44.7736 31.6397L44.4057 31.6393L44.5674 31.4419L44.1256 31.311L44.2142 30.9857L44.3879 30.8268L44.4243 30.3666L44.2163 30.0914L44.2279 29.8664L43.9194 29.5343L44.3783 29.266L44.7699 29.1061L45.0993 29.1228L45.1059 28.9005L44.8704 28.3782L44.4167 27.8518L44.6237 27.6683L45.1429 27.834L45.4748 27.8299L45.9879 27.4474L46.1997 27.3996L46.2141 27.1187L45.8208 26.4228L45.9025 26.3362L46.2827 26.087L46.443 25.8054L46.9812 25.7328L46.755 25.3359L46.8247 25.2442Z" fill="#FFB332"/>
</g>
<path d="M36.7646 37.9668C39.6984 41.0143 44.4263 42.7449 50.9179 42.7449C53.9041 42.7449 58.1029 41.9871 60.3848 40.6619L60.0066 32.1383C57.842 33.2757 54.23 33.97 51.6872 33.97C48.7977 33.97 46.7676 33.5458 45.4374 32.646L45.2782 33.3544L44.2413 33.267L44.2222 33.4542L42.4247 34.6377L42.4372 34.0613L41.6425 33.7086L41.6131 33.7078L41.0188 34.2428L40.2515 34.0114L39.6504 34.3038L39.2952 34.0545L38.7815 34.1598L38.7105 33.9938L38.1233 34.1702L37.6326 35.1044L36.7058 34.3714L36.6963 34.3744L36.7653 34.7713L36.4553 35.1593L36.8731 35.5003L36.5238 35.7889L36.7182 35.8451L36.9719 37.9477L36.7646 37.9668Z" fill="white"/>
<path d="M45.2131 30.7497H60.3848C60.5804 29.2354 60.7108 27.3415 60.7108 26.2042C60.7108 18.1236 55.1819 13.7051 47.6187 13.7051C46.306 13.7051 45.0462 13.8483 43.8557 14.1244L44.3192 14.1572L44.5542 15.0329L44.4976 15.259L44.5103 15.2723L46.0289 14.7967L45.464 15.9071L45.4889 15.9458L46.1337 16.1562L46.8954 16.0568L47.2817 17.5872L47.1201 17.9585L47.201 18.5735L46.0826 19.3438L46.043 19.7686L45.9169 19.8212L45.9554 19.8477L45.957 19.9503L46.7217 19.9136L46.6737 20.9458C46.9867 20.875 47.3232 20.8387 47.6839 20.8387C49.9659 20.8387 51.296 22.2274 51.296 24.5008V25.1951H48.7477L48.7513 25.4301L47.9133 25.7232L48.2848 26.3751L46.9549 26.5545L46.897 26.6563L46.8908 26.6604L47.0416 26.9271L46.9837 28.0544L46.3394 28.1997L45.8489 28.5654L45.9275 28.7396L45.8913 29.9746L45.1184 29.9354L45.2624 30.1258L45.2131 30.7497Z" fill="white"/>
<path d="M44.8039 25.1951H45.8429L45.7835 25.2732L45.7974 25.2977L45.6713 25.5195L45.3747 25.7138L44.8191 26.3029L45.2174 27.0077L44.4304 26.7566L43.2795 27.7766L43.9637 28.5705L42.6364 29.3467L43.3976 30.166L43.3884 30.3438L43.5219 30.5204L43.4902 30.5494L43.2209 31.5385L42.7751 32.048L42.7514 32.0467L42.6353 32.2145L42.5231 32.1692L42.1335 32.1527L41.0781 31.6843L40.9224 32.144L40.6085 32.4266L40.2336 32.3135L39.8256 32.4438L39.8158 32.4369L39.8102 32.4238L39.7668 32.4025L39.6585 32.3264L39.6255 32.3332L38.6184 31.8394L38.4487 32.1536L37.4198 32.492L37.1363 32.714L36.936 32.5945L36.4585 32.7484L35.6213 32.5869L34.9833 34.0378L35.0345 34.3324L34.6049 34.8701C33.6587 32.9269 33.1836 30.6723 33.1836 28.1615C33.1836 21.757 36.4692 17.0004 41.4586 14.8979L41.4606 14.9438L42.4805 16.0822L42.8503 15.8859L43.0543 16.1001L43.0958 16.696L43.2031 16.761L43.1413 16.8823L44.2784 17.3452L43.523 18.1347L43.7634 18.9605L43.3766 19.928L43.5729 20.846L44.5056 21.1355L44.5242 21.1296L44.9001 21.6224L45.0434 21.6155L45.0425 21.7966C44.2354 22.5463 43.7276 23.7101 43.4851 25.1951H44.3306L44.3047 25.2758L44.8039 25.1951Z" fill="white"/>
<mask id="mask1_1560_9468" style="mask-type:luminance" maskUnits="userSpaceOnUse" x="33" y="13" width="28" height="30">
<path d="M36.7646 37.9668C39.6984 41.0143 44.4263 42.7449 50.9179 42.7449C53.904 42.7449 58.1029 41.9871 60.3848 40.6619L60.0066 32.1383C57.842 33.2757 54.23 33.97 51.6872 33.97C48.7977 33.97 46.7676 33.5458 45.4374 32.646L45.2782 33.3544L44.2413 33.267L44.2222 33.4542L42.4247 34.6377L42.4372 34.0613L41.6425 33.7086L41.6131 33.7078L41.0188 34.2428L40.2515 34.0114L39.6504 34.3038L39.2952 34.0545L38.7815 34.1598L38.7105 33.9938L38.1233 34.1702L37.6326 35.1044L36.7058 34.3714L36.6963 34.3744L36.7653 34.7713L36.4553 35.1593L36.8731 35.5003L36.5238 35.7889L36.7182 35.8451L36.9719 37.9477L36.7646 37.9668Z" fill="white"/>
<path d="M45.2131 30.7497H60.3848C60.5804 29.2354 60.7108 27.3415 60.7108 26.2042C60.7108 18.1236 55.1819 13.7051 47.6187 13.7051C46.306 13.7051 45.0462 13.8483 43.8557 14.1244L44.3192 14.1572L44.5542 15.0329L44.4976 15.259L44.5103 15.2723L46.0289 14.7967L45.464 15.9071L45.4889 15.9458L46.1337 16.1562L46.8954 16.0568L47.2817 17.5872L47.1201 17.9585L47.201 18.5735L46.0826 19.3438L46.043 19.7686L45.9169 19.8212L45.9554 19.8477L45.957 19.9503L46.7217 19.9136L46.6737 20.9458C46.9867 20.875 47.3232 20.8387 47.6839 20.8387C49.9659 20.8387 51.296 22.2274 51.296 24.5008V25.1951H48.7477L48.7513 25.4301L47.9133 25.7232L48.2848 26.3751L46.9549 26.5545L46.897 26.6563L46.8908 26.6604L47.0416 26.9271L46.9837 28.0544L46.3394 28.1997L45.8489 28.5654L45.9275 28.7396L45.8913 29.9746L45.1184 29.9354L45.2624 30.1258L45.2131 30.7497Z" fill="white"/>
<path d="M44.8039 25.1951H45.8429L45.7835 25.2732L45.7974 25.2977L45.6713 25.5195L45.3747 25.7138L44.8191 26.3029L45.2174 27.0077L44.4304 26.7566L43.2795 27.7766L43.9637 28.5705L42.6364 29.3467L43.3976 30.166L43.3884 30.3438L43.5219 30.5204L43.4902 30.5494L43.2209 31.5385L42.7751 32.048L42.7514 32.0467L42.6353 32.2145L42.5231 32.1692L42.1335 32.1527L41.0781 31.6843L40.9224 32.144L40.6085 32.4266L40.2336 32.3135L39.8256 32.4438L39.8158 32.4369L39.8102 32.4238L39.7668 32.4025L39.6585 32.3264L39.6255 32.3332L38.6184 31.8394L38.4487 32.1536L37.4198 32.492L37.1363 32.714L36.936 32.5945L36.4585 32.7485L35.6213 32.5869L34.9833 34.0378L35.0345 34.3324L34.6049 34.8701C33.6587 32.9269 33.1836 30.6723 33.1836 28.1615C33.1836 21.757 36.4692 17.0004 41.4586 14.8979L41.4606 14.9438L42.4805 16.0822L42.8503 15.8859L43.0543 16.1001L43.0958 16.696L43.2031 16.761L43.1413 16.8823L44.2784 17.3452L43.523 18.1347L43.7634 18.9605L43.3766 19.928L43.5729 20.846L44.5056 21.1355L44.5242 21.1296L44.9001 21.6224L45.0434 21.6155L45.0425 21.7966C44.2354 22.5463 43.7276 23.7101 43.4851 25.1951H44.3306L44.3047 25.2758L44.8039 25.1951Z" fill="white"/>
<path d="M36.7646 37.9668C39.6984 41.0143 44.4263 42.7449 50.9179 42.7449C53.904 42.7449 58.1029 41.9871 60.3848 40.6619L60.0066 32.1383C57.842 33.2757 54.23 33.97 51.6872 33.97C48.7977 33.97 46.7676 33.5458 45.4374 32.646L45.2782 33.3544L44.2413 33.267L44.2222 33.4542L42.4247 34.6377L42.4372 34.0613L41.6425 33.7086L41.6131 33.7078L41.0188 34.2428L40.2515 34.0114L39.6504 34.3038L39.2952 34.0545L38.7815 34.1598L38.7105 33.9938L38.1233 34.1702L37.6326 35.1044L36.7058 34.3714L36.6963 34.3744L36.7653 34.7713L36.4553 35.1593L36.8731 35.5003L36.5238 35.7889L36.7182 35.8451L36.9719 37.9477L36.7646 37.9668Z" stroke="white" stroke-width="0.254279"/>
<path d="M45.2131 30.7497H60.3848C60.5804 29.2354 60.7108 27.3415 60.7108 26.2042C60.7108 18.1236 55.1819 13.7051 47.6187 13.7051C46.306 13.7051 45.0462 13.8483 43.8557 14.1244L44.3192 14.1572L44.5542 15.0329L44.4976 15.259L44.5103 15.2723L46.0289 14.7967L45.464 15.9071L45.4889 15.9458L46.1337 16.1562L46.8954 16.0568L47.2817 17.5872L47.1201 17.9585L47.201 18.5735L46.0826 19.3438L46.043 19.7686L45.9169 19.8212L45.9554 19.8477L45.957 19.9503L46.7217 19.9136L46.6737 20.9458C46.9867 20.875 47.3232 20.8387 47.6839 20.8387C49.9659 20.8387 51.296 22.2274 51.296 24.5008V25.1951H48.7477L48.7513 25.4301L47.9133 25.7232L48.2848 26.3751L46.9549 26.5545L46.897 26.6563L46.8908 26.6604L47.0416 26.9271L46.9837 28.0544L46.3394 28.1997L45.8489 28.5654L45.9275 28.7396L45.8913 29.9746L45.1184 29.9354L45.2624 30.1258L45.2131 30.7497Z" stroke="white" stroke-width="0.254279"/>
<path d="M44.8039 25.1951H45.8429L45.7835 25.2732L45.7974 25.2977L45.6713 25.5195L45.3747 25.7138L44.8191 26.3029L45.2174 27.0077L44.4304 26.7566L43.2795 27.7766L43.9637 28.5705L42.6364 29.3467L43.3976 30.166L43.3884 30.3438L43.5219 30.5204L43.4902 30.5494L43.2209 31.5385L42.7751 32.048L42.7514 32.0467L42.6353 32.2145L42.5231 32.1692L42.1335 32.1527L41.0781 31.6843L40.9224 32.144L40.6085 32.4266L40.2336 32.3135L39.8256 32.4438L39.8158 32.4369L39.8102 32.4238L39.7668 32.4025L39.6585 32.3264L39.6255 32.3332L38.6184 31.8394L38.4487 32.1536L37.4198 32.492L37.1363 32.714L36.936 32.5945L36.4585 32.7485L35.6213 32.5869L34.9833 34.0378L35.0345 34.3324L34.6049 34.8701C33.6587 32.9269 33.1836 30.6723 33.1836 28.1615C33.1836 21.757 36.4692 17.0004 41.4586 14.8979L41.4606 14.9438L42.4805 16.0822L42.8503 15.8859L43.0543 16.1001L43.0958 16.696L43.2031 16.761L43.1413 16.8823L44.2784 17.3452L43.523 18.1347L43.7634 18.9605L43.3766 19.928L43.5729 20.846L44.5056 21.1355L44.5242 21.1296L44.9001 21.6224L45.0434 21.6155L45.0425 21.7966C44.2354 22.5463 43.7276 23.7101 43.4851 25.1951H44.3306L44.3047 25.2758L44.8039 25.1951Z" stroke="white" stroke-width="0.254279"/>
</mask>
<g mask="url(#mask1_1560_9468)">
<path d="M46.8266 25.2452L47.928 24.8599L47.9263 24.7481L47.5889 24.4167L47.1242 24.298L47.0658 24.1957L47.4036 23.8657L47.0456 23.9554L46.4443 23.8504L46.0849 24.1678L45.486 24.2646L45.6659 23.7051L45.2866 23.265L45.3714 23.1794L45.2897 22.9908L45.6144 22.6427L45.9473 22.4941L45.9871 22.1521L46.109 22.1354L45.8577 21.8811L45.8608 21.2967L45.8512 21.0972L45.8667 20.7655L45.2908 20.7931L45.1524 20.6117L45.1473 20.2759L44.953 20.1419L44.5024 20.2861L44.2718 20.2145L44.2258 19.9994L44.5261 19.2483L44.7574 19.2357L44.9589 19.3427L45.277 19.2101L45.2873 19.0996L45.2461 18.6506L44.7859 18.6192L44.4688 18.4668L44.4365 18.356L44.6809 18.1007L44.9897 18.2626L45.3312 18.3032L45.9322 18.0031L46.0407 18.0485L46.1824 18.2902L46.329 18.1893L46.2833 17.8422L46.4244 17.518L46.2819 16.9537L45.9319 16.9994L45.7393 17.4058L45.3518 17.2456L45.5125 16.8057L44.9585 16.625L44.8312 16.4266L44.4918 16.5568L44.2673 16.4655L44.4293 16.147L43.9852 16.2861L43.8805 16.2227L43.8479 15.7546L43.5994 15.4938L43.713 15.04L43.5321 14.3659L43.3986 14.6772L42.6631 15.0676L42.2633 14.6213L42.243 14.1436L42.069 13.6943L41.5789 13.9837L41.2453 14.0751L41.1444 14.0209L41.0281 13.8279L41.0919 13.6888L40.912 13.2473L40.7792 12.8375L40.3519 12.7526L40.3042 12.3601L40.203 12.3966L40.1669 12.2916L39.8402 12.1794L39.8011 11.9878L39.5993 11.7754L38.9592 11.5497L38.7591 11.2991L38.7707 11.0874L39.0793 10.9156L39.1809 10.4788L39.4036 10.3983L39.405 10.2886L39.1761 10.0809L39.1956 9.8784L38.873 9.38267L38.6582 9.26436L38.5912 9.0932L38.8109 8.6169L38.4622 8.58997L38.1897 8.38779L37.8413 8.37108L37.7857 8.30596L37.6268 8.36426L36.8052 8.17674L36.6315 8.01445L36.268 8.54053L36.2777 8.74748L36.4956 9.10275L35.7567 8.98853L35.6664 9.04888L35.2525 8.91489L35.0455 8.9841L34.7723 9.1365L34.6759 9.53473L34.3605 9.45188L34.286 8.97626L34.1902 8.91966L33.8988 9.07786L33.6881 9.00626L33.6119 9.3172L33.5028 9.3455L33.4087 9.27834L33.1822 9.33527L32.6533 9.09729L32.5002 9.37687L32.387 9.32743L31.9628 9.57053L31.5928 9.61349L31.3323 9.114L31.1054 9.17741L30.8827 9.10479L30.4993 8.68816L30.0899 8.93705L29.9093 8.98751L30.0079 9.1815L29.5435 9.16855L29.9392 9.43176L29.3688 9.8501L28.7658 9.93568L28.5166 9.26265L28.02 9.7918L27.7152 9.69667L27.7413 9.59371L27.7656 9.39358L27.4416 9.08536L26.8033 8.59713L26.563 8.61486L26.39 8.32334L26.0654 8.79146L25.8543 8.77544L25.7651 8.99058L25.392 9.28993L25.2166 9.25617L25.0673 8.85965L24.6668 8.68543L24.5515 7.98581L24.4842 7.91046L24.2618 7.97115L24.2741 7.86273L24.0692 7.96229L24.0037 8.61861L23.043 8.39119L23.3004 8.05639L23.2603 7.85591L22.7414 7.66396L22.7551 7.55963L22.3748 7.37347L22.3693 7.26914L22.2602 7.2555L21.7697 7.4628L21.8518 7.20879L21.8981 7.06389L21.1859 6.8525L20.8197 6.9299L20.3166 6.60873L19.9926 7.01207L19.1167 5.76387L18.8555 5.74886L18.6362 5.78228L18.5967 6.009L18.3455 6.2596L18.2909 6.58895L17.8269 6.70624L17.726 6.6435L17.5671 6.79931L17.2441 6.86989L16.6555 6.77545L17.0536 6.38609L16.7465 5.94013L16.441 6.0864L15.9784 6.14095L15.7268 6.02946L15.791 6.22653L15.5325 6.42632L15.4309 6.38098L15.2864 6.16516L15.4186 5.99298L15.1766 5.78091L14.9484 5.7267L14.8667 5.80785L14.6453 5.55146L14.31 5.64419L13.8419 5.57464L13.7108 5.05674L13.4894 4.99776L13.4921 4.88866L13.2351 5.12766L12.782 5.28143L12.4992 5.49554L12.4961 5.50474L12.1117 5.62101L11.5904 6.06219L10.9983 5.80171L10.7324 6.09458L10.3898 6.22073L10.1424 6.22414L10.0607 6.1372L8.86151 6.50201L8.72593 6.07106L8.67308 6.10515L8.07898 6.23301L7.7289 6.41405L7.78897 6.19755L7.66301 6.0148L7.33043 6.0523L6.88151 5.74L6.78369 5.90399L6.39449 5.73727L6.3818 5.7417L5.90919 6.08538L5.59549 5.91968L5.50797 5.50304L5.2032 5.44167L5.17918 5.22313L4.96226 5.14437L4.96295 5.03015L5.39162 4.83683L5.43418 4.50168L5.54298 4.45122L4.85073 3.98242L4.70039 4.15665L4.58816 4.36122L4.04486 4.83002L3.97278 5.05095L4.03662 5.2579L3.91066 5.57975L3.94052 5.88319L3.8125 6.05708L3.88217 6.27529L3.69822 6.69362L3.7648 6.78977L3.72739 6.83853L3.50774 7.19311L3.57089 7.58247L3.38692 7.76283L2.89476 8.43279L2.73379 8.70691L2.71732 9.01035L2.80793 9.07343L2.46918 9.34925L2.35935 9.15116L2.1318 9.1856L1.61561 9.38539L1.34687 9.60257L1.01464 9.53473L0.426713 9.67008L0.315175 9.28004L0.168277 9.13411L0.227655 9.35061L0.0055952 9.9817L-0.386007 10.2292L-0.621117 10.1631L-0.971536 9.83953L-1.30273 10.1696L-1.20938 10.2418L-1.28214 10.4587L-1.09372 10.7492L-1.05767 11.0853L-0.729219 11.3434L-0.606359 11.4723L-0.677394 11.6442L-0.529134 11.7833L-0.748785 12.2691L-0.965702 12.3451L-0.751194 12.8177L-0.578896 12.6687L-0.214747 12.665L0.113017 12.5163L0.243439 12.6939L0.357731 12.6984L-0.182832 13.1228L-0.0458846 13.5541L0.185099 13.5327L-0.0359343 13.9537H-0.0297546L0.197448 14.2094L0.117824 14.4184L0.253735 14.6015L0.464472 14.4979L0.821751 14.6056L0.874603 14.7134L0.901374 14.8051L0.963841 14.9721L0.827931 15.1106L1.41688 15.6506L1.00811 16.263L1.30225 16.5381L1.31907 16.4372L1.61148 16.5493L1.8658 16.7655L1.73263 17.2077L1.95127 17.2466L2.14415 17.3833L2.13489 17.4992L1.83835 17.6966L2.04153 18.117L2.03535 18.2176L1.78343 18.4007L1.72715 19.1968L1.97358 19.5882L1.86477 19.7921L1.91111 19.9353L2.38543 20.0267L2.84637 20.4157L2.7935 20.7143L2.73654 20.8538L2.61435 20.8777L2.0302 21.6322L1.98181 21.7044L2.1438 21.7518L1.85482 21.9206L1.84762 22.1981L2.52752 22.4538L2.40843 22.7679L2.32674 23.3072L2.44034 23.4245L2.79488 23.7372L3.27195 23.7044L3.21703 23.9199L3.46792 24.1473L3.4209 24.3444L3.59216 24.4852L3.60452 24.7051L3.81285 24.9694L4.18111 24.7958L4.38395 24.8504L4.2072 24.922L4.34414 25.042L4.3994 24.9458L4.95197 24.9881L5.02164 25.1893L4.6448 25.9356L4.83837 26.0607L4.81468 26.1698L5.50385 26.3389L5.72317 26.2486L6.03308 26.3833L6.11443 26.7014L6.42401 27.0246L6.63542 26.9871L6.38008 27.8933L6.39244 28.3624L6.68897 28.8647L6.62136 29.0825L6.84788 29.3273L6.78713 29.5101L6.94877 29.6611L6.9831 29.8694L7.17873 29.9352L7.74057 29.8981L7.84731 30.2076L8.03574 30.5898L8.36006 30.6645L8.55193 30.7978L8.7884 30.7924L8.89754 30.8145L9.37357 30.8057L9.5064 30.6164L9.73291 30.5472L9.78543 30.2223L9.98346 30.3529L10.0655 30.7245L10.27 30.7811L10.1393 30.9683L10.1791 31.4149L9.87295 31.732L9.96322 31.7695L9.97865 32.0276L10.4032 31.9478L10.7214 32.015L11.0721 32.1889L10.8261 32.8193L11.0666 32.8609L11.3083 33.3784L11.0344 33.612L10.9173 34.18L11.1912 34.5728L11.0337 34.7368L11.0557 35.045L10.651 35.2335L10.7138 35.4299L11.1164 35.9219L11.4655 35.9771L11.82 36.0197L12.2806 35.9083L12.6128 35.9911L12.805 35.8554L12.8342 35.6781L13.6476 35.7109L14.0265 35.2959L14.2585 35.2819L14.1858 35.6283L15.3764 35.5782L15.3839 35.4374L15.1965 35.2427L15.2161 35.0368L15.55 35.0985L15.5922 35.0198L15.8411 35.0617L15.8716 34.7221L16.4389 34.0133L16.616 34.2918L17.0162 34.524L17.3546 34.5175L17.1614 34.9751L17.3993 35.0068L17.3279 35.5796L17.554 35.478L17.887 35.0198L18.4148 35.2168L18.6132 35.1476L18.8984 34.5121L19.0093 34.4637L19.2924 34.421L19.3398 34.6369L19.9112 35.1749L19.9998 35.2294L20.1892 35.1466L20.2414 35.2339L20.9185 35.0123L21.0054 34.8285L21.4279 35.5509L21.4128 36.6464L21.4502 36.7412L21.6602 37.0146L21.8806 37.1005L21.9825 37.0572L22.1527 37.194L22.5564 37.0307L22.7359 37.1803L22.7554 37.4057L22.9085 37.5792L23.4226 37.5939L23.4497 37.9157L23.6364 37.985L23.6076 38.4071H23.6845L23.8156 38.9324L23.7518 39.0958L23.6378 39.1261L23.4847 39.5329L23.6262 40.0739L23.4257 40.3569L22.8869 40.0848L22.6205 40.4186L22.6267 40.6218L22.3696 40.9703L21.9767 41.197L21.94 41.3985L22.2475 41.4691L22.3199 41.3944L22.7541 41.2764L23.7967 41.4077L23.7854 41.2996L24.1537 40.8922L24.9255 40.8823L25.0961 41.1864L25.7136 41.1854L26.539 40.9451L27.1249 41.5649L27.1908 41.5605L27.3758 41.4091L28.101 41.4207L28.4723 40.9969L29.237 40.7197L29.2147 40.5093L28.798 40.0245L29.225 40.1902L29.4299 40.0975L29.6585 40.1237L29.839 39.9894L30.0552 40.0586L30.2587 39.9665L30.5381 40.0998L30.5264 40.209L30.2927 40.452L30.2708 40.9976L30.339 41.1973L30.7708 41.2577L31.4638 40.8257L31.8433 40.3702L31.9408 40.3556L32.619 40.2557L33.4661 40.1227L33.4293 39.6038L33.9119 39.1425L34.275 39.0862L34.2911 38.776L34.6951 38.5874L34.8859 38.6774L35.0929 38.5734L35.2521 38.1469L35.7165 37.2506L36.0635 37.2185L35.9736 36.4732L35.5312 36.3454L35.6475 36.0163L35.421 35.6474L35.5943 35.5042L35.3191 35.2796L35.9005 34.552L35.8287 34.1394L36.1074 33.5056L36.5103 33.5833L36.835 33.4787L37.0276 33.5936L37.2596 33.5827L37.2785 33.7889L37.3677 33.8595L37.6309 33.3583L37.8125 33.2161L38.2188 33.0825L38.3352 33.2608L38.8617 33.1026L38.9647 32.912L39.1788 33.017L39.2712 33.2329L39.4774 33.1906L39.7266 33.3655L39.9613 33.2513L40.2411 33.1619L40.8142 33.3348L41.3084 32.8899L41.5284 32.8957L41.5652 32.7872L42.2073 33.0723L42.2348 32.9676L42.3477 32.9724L42.6611 33.0989L42.811 33.0631L43.0393 33.061L43.1645 32.88L43.2785 32.8861L43.2737 33.1077L43.4508 32.9911L43.5064 32.4473L43.7185 32.2049L43.9467 32.1988L44.2982 32.4592L44.6383 32.4879L44.78 31.8571L44.7756 31.6406L44.4077 31.6403L44.5693 31.4429L44.1276 31.312L44.2161 30.9867L44.3898 30.8278L44.4262 30.3675L44.2182 30.0924L44.2299 29.8674L43.9213 29.5353L44.3802 29.267L44.7718 29.1071L45.1013 29.1238L45.1078 28.9015L44.8724 28.3792L44.4186 27.8527L44.6256 27.6693L45.1449 27.835L45.4768 27.8309L45.9899 27.4484L46.2016 27.4006L46.216 27.1197L45.8227 26.4238L45.9044 26.3372L46.2847 26.088L46.445 25.8064L46.9831 25.7338L46.7569 25.3369L46.8266 25.2452Z" fill="#FFB332"/>
</g>
<path fill-rule="evenodd" clip-rule="evenodd" d="M87.3379 6.12881C87.3379 3.22457 89.6198 1.01465 92.8016 1.01465C95.8529 1.01465 98.0045 3.22457 98.0045 6.12881C98.0045 9.15871 95.8529 11.3686 92.8016 11.3686C89.6198 11.3686 87.3379 9.15871 87.3379 6.12881ZM87.5856 14.5255L97.7567 14.1459V42.1132H87.5856V14.5255ZM76.3328 14.3349H83.7135L83.0093 22.9842H76.3328V30.8122C76.3328 33.1478 77.4803 33.9691 79.8275 33.9691C81.1054 33.9691 82.3703 33.5273 83.2701 32.8952L83.6483 41.3553C82.1226 42.2388 79.958 42.744 77.2326 42.744C69.3435 42.744 66.1748 38.7671 66.1748 31.8848V22.9842H62.4844V14.3349H66.1748V8.78034L76.3328 6.69609V14.3349ZM125.78 16.1667C123.746 14.5877 120.564 13.7042 116.444 13.7042C107.981 13.7042 101.435 19.8275 101.435 28.1606C101.435 37.5677 108.62 42.7441 116.626 42.7441C120.447 42.7441 123.303 41.9228 125.78 40.5341L125.402 31.6336C123.433 32.8331 121.021 33.6531 118.413 33.6531C114.344 33.6531 111.932 31.8849 111.932 28.1606C111.932 24.6255 114.214 22.8587 117.578 22.8587C120.056 22.8587 122.286 23.8043 123.681 25.2564L125.78 16.1667ZM148.856 13.892H159.079L151.268 37.6299C147.838 48.1717 141.488 53.3481 134.877 53.9802L130.613 46.0887C134.238 45.647 137.028 43.9423 138.306 41.6702L127.627 14.0824L138.371 13.7029L141.671 22.983C142.883 26.4546 143.835 29.548 144.213 31.6323H144.526C144.787 29.548 145.543 26.4547 146.508 22.9196L148.856 13.892Z" fill="white"/>
</svg>
