<svg width="25" height="25" viewBox="0 0 25 25" fill="none" xmlns="http://www.w3.org/2000/svg">
<path d="M13.7351 3.55282L18.1865 4.2193C20.5664 4.57541 21.7952 6.4766 21.4391 8.85357L20.4798 15.2674C20.1237 17.6444 18.3928 19.1029 16.0119 18.7468L11.5615 18.0803C9.18163 17.7242 7.95276 15.8239 8.3079 13.446L9.26822 7.03217C9.62336 4.6552 11.3621 3.19866 13.7351 3.55282Z" stroke="#FFF" stroke-width="1.5" stroke-linecap="round" stroke-linejoin="round"/>
<path d="M9.41788 6.375L6.55735 7.31976C4.26892 8.07284 3.36989 10.153 4.1327 12.4415L6.15746 18.5985C6.91151 20.8781 8.86427 22.0223 11.143 21.2693L15.4299 19.8614C16.147 19.6347 16.7463 19.2533 17.1822 18.7716" stroke="#FFF" stroke-width="1.5" stroke-linecap="round" stroke-linejoin="round"/>
</svg>
