<svg width="25" height="25" viewBox="0 0 25 25" fill="none" xmlns="http://www.w3.org/2000/svg">
<path d="M16.8765 19.2087C16.6285 19.2087 16.3735 19.1897 16.1125 19.1517L11.6605 18.4807C9.05547 18.0887 7.57848 15.9987 7.98648 13.2827L8.94648 6.86275C9.35345 4.146 11.3711 2.58303 13.9808 2.96265L13.982 2.96325L13.9832 2.96385L18.4335 3.63375C21.0385 4.02675 22.5145 6.11575 22.1065 8.83175L21.1475 15.2517C20.7795 17.6947 19.1045 19.2087 16.8765 19.2087Z" fill="#FFF"/>
<path d="M11.436 19.9651L14.0254 20.3543C14.2338 20.3857 14.2583 20.6763 14.0581 20.7421L10.7226 21.8386C10.1986 22.0116 9.68563 22.0946 9.19363 22.0946C7.34063 22.0946 5.78863 20.9126 5.10663 18.8516L3.08163 12.6906C2.65163 11.3996 2.70263 10.1127 3.22863 9.06867C3.73163 8.06767 4.62963 7.33167 5.82463 6.93967L7.26093 6.46777C7.37102 6.4316 7.48013 6.52652 7.46296 6.64112L6.50296 13.0601C5.97096 16.6071 7.99896 19.4461 11.436 19.9651Z" fill="#FFF"/>
</svg>
