<svg width="40" height="40" viewBox="0 0 40 40" fill="none" xmlns="http://www.w3.org/2000/svg">
<path d="M33.4984 11.5574C32.9878 10.7529 32.3816 9.99165 31.6798 9.2898C31.3208 8.93089 30.9464 8.59699 30.5586 8.28809" stroke="black" stroke-width="2.5" stroke-linecap="round" stroke-linejoin="round"/>
<path d="M11.4295 20.4795L17.1838 6.43866C17.313 6.08659 17.6482 5.85254 18.0232 5.85254H25.7373C26.3543 5.85254 26.7858 6.46274 26.5802 7.04447L23.1688 15.051C22.9632 15.6328 23.3947 16.243 24.0117 16.243H31.2958C32.0642 16.243 32.4745 17.1482 31.9682 17.7262L18.1377 33.5123C17.5145 34.2237 16.3578 33.6067 16.6014 32.6928L19.238 22.8057C19.3893 22.2382 18.9615 21.6813 18.3742 21.6813H12.2688C11.6473 21.6813 11.2155 21.0628 11.4295 20.4795Z" stroke="#FFF" stroke-width="2.5" stroke-linecap="round" stroke-linejoin="round"/>
<path d="M10.3596 30.4708C4.48561 24.5968 4.48561 15.0732 10.3596 9.19922" stroke="black" stroke-width="2.5" stroke-linecap="round" stroke-linejoin="round"/>
<path d="M35.9545 21.4131C35.6075 24.7206 34.1665 27.9351 31.6316 30.4699C29.4236 32.6779 26.6998 34.0559 23.8481 34.6039" stroke="black" stroke-width="2.5" stroke-linecap="round" stroke-linejoin="round"/>
</svg>
