<svg width="24" height="24" viewBox="0 0 24 24" fill="none" xmlns="http://www.w3.org/2000/svg">
<path fill-rule="evenodd" clip-rule="evenodd" d="M7.66322 3.01074H5.13522C3.68322 3.01074 2.50122 4.19274 2.50122 5.64474V8.17274C2.50122 9.62574 3.68322 10.8068 5.13522 10.8068H7.66322C9.11522 10.8068 10.2972 9.62574 10.2972 8.17274V5.64474C10.2972 4.19274 9.11522 3.01074 7.66322 3.01074Z" fill="#FFF"/>
<path fill-rule="evenodd" clip-rule="evenodd" d="M15.2149 10.5589C15.7129 11.0569 16.3739 11.3309 17.0779 11.3309C17.7819 11.3309 18.4439 11.0569 18.9419 10.5589L20.7289 8.77095C21.7549 7.74495 21.7559 6.07395 20.7289 5.04595L18.9419 3.25895C17.9449 2.26395 16.2099 2.26395 15.2149 3.25895L13.4279 5.04595C12.4019 6.07395 12.4019 7.74495 13.4289 8.77095L15.2149 10.5589Z" fill="#FFF"/>
<path fill-rule="evenodd" clip-rule="evenodd" d="M18.3429 13.6904H15.8149C14.3629 13.6904 13.1809 14.8724 13.1809 16.3244V18.8524C13.1809 20.3054 14.3629 21.4864 15.8149 21.4864H18.3429C19.7959 21.4864 20.9769 20.3054 20.9769 18.8524V16.3244C20.9769 14.8724 19.7959 13.6904 18.3429 13.6904Z" fill="#FFF"/>
<path fill-rule="evenodd" clip-rule="evenodd" d="M7.66322 13.6904H5.13522C3.68322 13.6904 2.50122 14.8724 2.50122 16.3244V18.8524C2.50122 20.3054 3.68322 21.4864 5.13522 21.4864H7.66322C9.11522 21.4864 10.2972 20.3054 10.2972 18.8524V16.3244C10.2972 14.8724 9.11522 13.6904 7.66322 13.6904Z" fill="#FFF"/>
</svg>
