<svg width="25" height="25" viewBox="0 0 25 25" fill="none" xmlns="http://www.w3.org/2000/svg">
<path fill-rule="evenodd" clip-rule="evenodd" d="M8.26229 10.8198H5.73406C4.55538 10.8198 3.60001 9.8644 3.60001 8.68572V6.15748C3.60001 4.97881 4.55538 4.02344 5.73406 4.02344H8.26229C9.44097 4.02344 10.3963 4.97881 10.3963 6.15748V8.68572C10.3963 9.8644 9.44097 10.8198 8.26229 10.8198Z" stroke="#FFF" stroke-width="1.5" stroke-linecap="round" stroke-linejoin="round"/>
<path fill-rule="evenodd" clip-rule="evenodd" d="M16.1685 10.7182L14.381 8.93075C13.548 8.09772 13.548 6.74622 14.381 5.91221L16.1685 4.12478C17.0015 3.29174 18.353 3.29174 19.187 4.12478L20.9744 5.91221C21.8075 6.74622 21.8075 8.09772 20.9744 8.93075L19.187 10.7182C18.353 11.5522 17.0015 11.5522 16.1685 10.7182Z" stroke="#FFF" stroke-width="1.5" stroke-linecap="round" stroke-linejoin="round"/>
<path fill-rule="evenodd" clip-rule="evenodd" d="M18.942 21.4995H16.4137C15.2351 21.4995 14.2797 20.5441 14.2797 19.3654V16.8372C14.2797 15.6585 15.2351 14.7031 16.4137 14.7031H18.942C20.1206 14.7031 21.076 15.6585 21.076 16.8372V19.3654C21.076 20.5441 20.1206 21.4995 18.942 21.4995Z" stroke="#FFF" stroke-width="1.5" stroke-linecap="round" stroke-linejoin="round"/>
<path fill-rule="evenodd" clip-rule="evenodd" d="M8.26229 21.4995H5.73406C4.55538 21.4995 3.60001 20.5441 3.60001 19.3654V16.8372C3.60001 15.6585 4.55538 14.7031 5.73406 14.7031H8.26229C9.44097 14.7031 10.3963 15.6585 10.3963 16.8372V19.3654C10.3963 20.5441 9.44097 21.4995 8.26229 21.4995Z" stroke="#FFF" stroke-width="1.5" stroke-linecap="round" stroke-linejoin="round"/>
</svg>
