<svg width="25" height="25" viewBox="0 0 25 25" fill="none" xmlns="http://www.w3.org/2000/svg">
<path d="M8.87963 3.00113C9.50963 3.02029 10.1196 3.13029 10.7106 3.33129H10.7696C10.8096 3.35029 10.8396 3.37129 10.8596 3.39029C11.0806 3.46129 11.2896 3.54129 11.4896 3.65129L11.8696 3.82129C12.0196 3.90129 12.1996 4.05029 12.2996 4.11129C12.3996 4.17029 12.5096 4.23129 12.5996 4.30029C13.7106 3.45129 15.0596 2.99129 16.4496 3.00113C17.0806 3.00113 17.7106 3.09029 18.3096 3.29129C22.0006 4.49129 23.3306 8.54129 22.2196 12.0813C21.5896 13.8903 20.5596 15.5413 19.2106 16.8903C17.2796 18.7603 15.1606 20.4203 12.8796 21.8503L12.6296 22.0013L12.3696 21.8403C10.0806 20.4203 7.94963 18.7603 6.00063 16.8803C4.66063 15.5313 3.62963 13.8903 2.98963 12.0813C1.85963 8.54129 3.18963 4.49129 6.92063 3.27029C7.21063 3.17029 7.50963 3.10029 7.80963 3.06129H7.92963C8.21063 3.02029 8.48963 3.00113 8.76963 3.00113H8.87963ZM17.7896 6.16129C17.3796 6.02029 16.9296 6.24129 16.7796 6.66129C16.6396 7.08129 16.8596 7.54129 17.2796 7.69029C17.9206 7.93029 18.3496 8.56129 18.3496 9.26029V9.29129C18.3306 9.52029 18.3996 9.74129 18.5396 9.91129C18.6796 10.0813 18.8896 10.1803 19.1096 10.2013C19.5196 10.1903 19.8696 9.86129 19.8996 9.44029V9.32129C19.9296 7.92029 19.0806 6.65129 17.7896 6.16129Z" fill="#FFF"/>
</svg>
