<svg width="25" height="25" viewBox="0 0 25 25" fill="none" xmlns="http://www.w3.org/2000/svg">
<path d="M9.71582 21.4014C8.9092 21.3985 7.10333 21.4005 4.9822 21.4014C4.3517 21.4014 3.97904 20.6966 4.32932 20.1713C4.52586 19.8765 4.7769 19.5162 4.97539 19.237C5.17291 18.9568 5.19042 18.5888 5.01917 18.291C4.71852 17.7667 4.26899 16.9691 4.15321 16.6801C2.75988 13.6585 3.29795 9.96523 5.782 7.4718C9.18262 4.05968 14.859 4.30473 17.9327 8.20499" stroke="white" stroke-width="1.5" stroke-linecap="round" stroke-linejoin="round"/>
<path d="M16.2552 21.4025C14.7918 21.4064 13.3285 20.7933 12.2854 19.5553C10.7247 17.7043 10.6751 14.9258 12.1745 13.025C14.1253 10.5481 17.7293 10.3929 19.8874 12.5583C21.4656 14.1418 21.8062 16.4869 20.9227 18.4043C20.8487 18.5888 20.5637 19.0945 20.372 19.4274C20.264 19.6159 20.2747 19.8502 20.4002 20.0278C20.5257 20.2055 20.6853 20.433 20.8108 20.6205C21.0326 20.9553 20.7962 21.4025 20.3963 21.4025C19.0487 21.4015 16.767 21.4005 16.2552 21.4025Z" stroke="white" stroke-width="1.5" stroke-linecap="round" stroke-linejoin="round"/>
</svg>
