<svg width="40" height="41" viewBox="0 0 40 41" fill="none" xmlns="http://www.w3.org/2000/svg">
<path d="M21.9187 29.3245L21.9074 29.3324L21.8966 29.3408C21.4627 29.679 20.9541 29.8933 20.4225 29.971C20.1234 30.0095 19.8338 30.0098 19.5524 29.9713C19.0192 29.8937 18.5104 29.6794 18.0776 29.3405L18.0658 29.3312L18.0534 29.3227C17.7711 29.1278 17.5942 28.8408 17.5739 28.5494C17.5763 28.4835 17.6004 28.4382 17.6674 28.3855C17.7539 28.3174 17.8941 28.2576 18.0704 28.2163C18.1487 28.2007 18.3847 28.1815 18.7541 28.1681C19.1102 28.1552 19.5472 28.1486 19.9862 28.1486C20.4252 28.1486 20.8622 28.1552 21.2182 28.1681C21.5877 28.1815 21.8237 28.2007 21.902 28.2163C22.0783 28.2576 22.2185 28.3174 22.305 28.3855C22.372 28.4382 22.3961 28.4835 22.3985 28.5494C22.3782 28.8408 22.2011 29.1284 21.9187 29.3245ZM25.1164 13.4299L25.1176 13.4313C25.8625 14.3905 26.2071 15.3337 26.2071 16.8703V17.2963C26.2071 17.9699 26.2963 18.5332 26.4983 19.0531C26.6998 19.5718 27.0023 20.0184 27.3897 20.4708L27.3897 20.4708L27.3943 20.4761C27.8346 20.976 28 21.6414 28 22.456C28 23.2142 27.7534 23.9241 27.2642 24.5009C26.5953 25.214 25.6517 25.6697 24.696 25.7487L24.6948 25.7488C23.1264 25.8825 21.5715 25.9937 20.0005 25.9937C18.4203 25.9937 16.8685 25.9268 15.3204 25.7502L15.3127 25.7493L15.3049 25.7487C14.3482 25.6697 13.4047 25.2139 12.7369 24.5011C12.2474 23.9239 12 23.2139 12 22.456C12 21.642 12.1661 20.9762 12.6058 20.476C13.0077 20.0208 13.3122 19.572 13.5117 19.0507C13.7112 18.5294 13.7939 17.9661 13.7939 17.2963V16.8703C13.7939 15.2979 14.1772 14.3099 14.9655 13.3266C16.1511 11.8781 18.0643 11 19.9558 11H20.0452C21.9801 11 23.9547 11.9226 25.1164 13.4299Z" fill="white" stroke="white"/>
</svg>
