<svg width="40" height="41" viewBox="0 0 40 41" fill="none" xmlns="http://www.w3.org/2000/svg">
<path d="M26.5611 23.0196C28.1931 23.0196 29.5 24.3168 29.5 25.8992C29.5 27.4805 28.1932 28.7778 26.5611 28.7778C24.93 28.7778 23.6223 27.4803 23.6223 25.8992C23.6223 24.3169 24.9301 23.0196 26.5611 23.0196ZM18.0833 24.958C18.6477 24.958 19.0911 25.4061 19.0911 25.9393C19.0911 26.4716 18.6475 26.9206 18.0833 26.9206H11.5078C10.9436 26.9206 10.5 26.4716 10.5 25.9393C10.5 25.4061 10.9433 24.958 11.5078 24.958H18.0833ZM13.4389 12C15.071 12 16.3777 13.2973 16.3777 14.8786C16.3777 16.461 15.0709 17.7582 13.4389 17.7582C11.8079 17.7582 10.5 16.4609 10.5 14.8786C10.5 13.2974 11.8078 12 13.4389 12ZM28.4933 13.8983C29.0567 13.8983 29.5 14.3465 29.5 14.8786C29.5 15.412 29.0564 15.8599 28.4933 15.8599H21.9178C21.3534 15.8599 20.9101 15.4117 20.9101 14.8786C20.9101 14.3467 21.3531 13.8983 21.9178 13.8983H28.4933Z" fill="white" stroke="white"/>
</svg>
