<svg width="24" height="24" viewBox="0 0 24 24" fill="none" xmlns="http://www.w3.org/2000/svg">
<path d="M8.76263 3H17.1973C20.1454 3 21.9805 5.08119 21.9805 8.02638V15.9736C21.9805 18.9188 20.1454 21 17.1964 21H8.76263C5.81452 21 3.98047 18.9188 3.98047 15.9736V8.02638C3.98047 5.08119 5.82328 3 8.76263 3Z" stroke="white" stroke-width="1.5" stroke-linecap="round" stroke-linejoin="round"/>
<path fill-rule="evenodd" clip-rule="evenodd" d="M13.8047 15.1393C13.7989 16.0724 14.55 16.8342 15.4831 16.8411C16.4162 16.8469 17.178 16.0958 17.1848 15.1627C17.1907 14.2286 16.4395 13.4668 15.5065 13.4609H15.4948C14.5646 13.458 13.8076 14.2092 13.8047 15.1393Z" stroke="white" stroke-width="1.5" stroke-linecap="round" stroke-linejoin="round"/>
<path d="M13.8057 15.1523H8.77539" stroke="white" stroke-width="1.5" stroke-linecap="round" stroke-linejoin="round"/>
<path fill-rule="evenodd" clip-rule="evenodd" d="M12.1555 8.85801C12.1614 7.92493 11.4102 7.16309 10.4772 7.15628C9.54407 7.15045 8.78224 7.90158 8.77542 8.83466C8.76959 9.76872 9.52072 10.5306 10.4538 10.5364H10.4655C11.3956 10.5393 12.1526 9.78818 12.1555 8.85801Z" stroke="white" stroke-width="1.5" stroke-linecap="round" stroke-linejoin="round"/>
<path d="M12.1562 8.84766H17.1866" stroke="white" stroke-width="1.5" stroke-linecap="round" stroke-linejoin="round"/>
</svg>
