<svg width="64" height="64" viewBox="0 0 64 64" fill="none" xmlns="http://www.w3.org/2000/svg">
<path d="M17.8229 12.6768H35.9308C42.2588 12.6768 46.1999 17.1453 46.1999 23.4677V40.529C46.1999 46.8514 42.2588 51.3199 35.9279 51.3199H17.8229C11.4919 51.3199 7.55664 46.8514 7.55664 40.529V23.4677C7.55664 17.1453 11.5121 12.6768 17.8229 12.6768Z" stroke="black" stroke-width="4" stroke-linecap="round" stroke-linejoin="round"/>
<path d="M31.1409 36.2394L22.6621 27.7607M22.6621 36.2394L31.1409 27.7607" stroke="black" stroke-width="4" stroke-linecap="round" stroke-linejoin="round"/>
<path d="M46.1816 26.6415L55.2656 19.2063C56.736 18.0012 58.907 18.2175 60.112 19.6878C60.6166 20.3047 60.8934 21.0774 60.8904 21.8731L60.8587 42.1431C60.8528 44.0461 59.3104 45.5855 57.4078 45.5797C56.615 45.5797 55.8451 45.3029 55.2312 44.7983L46.1816 37.3661" stroke="black" stroke-width="4" stroke-linecap="round" stroke-linejoin="round"/>
</svg>
